<svg width="48" height="48" viewBox="0 0 48 48" fill="none" xmlns="http://www.w3.org/2000/svg">
<g id="Size=48px">
<g id="Telegram">
<rect id="Rectangle" width="48" height="48" rx="24" fill="#419FD9"/>
<path id="Exclude" fill-rule="evenodd" clip-rule="evenodd" d="M29.3356 35.8831C31.0131 36.617 31.6422 35.0793 31.6422 35.0793L36.0806 12.7824C36.0456 11.2796 34.0186 12.1883 34.0186 12.1883L9.17051 21.9388C9.17051 21.9388 7.98227 22.3582 8.08712 23.0921C8.19196 23.826 9.13556 24.1755 9.13556 24.1755L15.3913 26.2724C15.3913 26.2724 17.2785 32.4582 17.6629 33.6464C18.0124 34.7997 18.3269 34.8346 18.3269 34.8346C18.6764 34.9744 18.9909 34.7298 18.9909 34.7298L23.0449 31.0602L29.3356 35.8831ZM30.4188 16.731C30.4188 16.731 31.2925 16.2068 31.2575 16.731C31.2575 16.731 31.3973 16.8009 30.943 17.2902C30.5236 17.7096 20.6333 26.5864 19.3053 27.7746C19.2004 27.8445 19.1305 27.9494 19.1305 28.0892L18.7461 31.3743C18.6762 31.7238 18.2219 31.7587 18.117 31.4442L16.4745 26.0622C16.4046 25.8525 16.4745 25.6079 16.6841 25.4681L30.4188 16.731Z" fill="white"/>
</g>
</g>
</svg>
