<svg width="22" height="22" viewBox="0 0 22 22" fill="none" xmlns="http://www.w3.org/2000/svg">
<circle cx="11" cy="11" r="11" fill="#DAE5F2"/>
<path d="M13 14.584C14.7659 13.8125 16 12.0508 16 10C16 8.0625 14.8979 6.38184 13.2864 5.55176C13.4214 5.75195 13.5 5.99219 13.5 6.25098V8.75098C13.5 9.44141 12.9404 10.001 12.25 10.001H9.75C9.05957 10.001 8.5 9.44141 8.5 8.75098V6.25098C8.5 5.99219 8.57861 5.75195 8.71362 5.55176C7.10205 6.38184 6 8.0625 6 10C6 12.0508 7.23413 13.8125 9 14.584V22H13V14.584Z" fill="#1A56A2"/>
<path d="M22 11C22 15.664 19.0974 19.65 15 21.2501V19.0645C17.9634 17.5918 20 14.5337 20 11C20 6.02944 15.9706 2 11 2C6.02944 2 2 6.02944 2 11C2 14.5337 4.03656 17.5918 7 19.0645V21.2501C2.90264 19.65 0 15.664 0 11C0 4.92487 4.92487 0 11 0C17.0751 0 22 4.92487 22 11Z" fill="#1A56A2"/>
</svg>
