<svg width="20" height="21" viewBox="0 0 20 21" fill="none" xmlns="http://www.w3.org/2000/svg">
<path d="M19.9599 10.2456C19.9599 9.51343 19.894 8.81284 19.7715 8.13916H10.2949V11.9988L15.7527 12C15.5313 13.2842 14.8189 14.3789 13.7274 15.1087V17.6128H16.9761C18.8731 15.869 19.9599 13.2912 19.9599 10.2456Z" fill="#4285F4"/>
<path d="M13.7275 15.1085C12.8232 15.7144 11.6586 16.0688 10.2962 16.0688C7.66452 16.0688 5.43196 14.3074 4.63243 11.9331H1.28125V14.5156C2.94154 17.7881 6.35395 20.0337 10.2962 20.0337C13.021 20.0337 15.3101 19.1436 16.9762 17.6115L13.7275 15.1085Z" fill="#34A853"/>
<path d="M4.3173 10.0175C4.3173 9.35081 4.42917 8.70637 4.63288 8.10052V5.51807H1.28169C0.595205 6.87128 0.208984 8.39877 0.208984 10.0175C0.208984 11.6362 0.596382 13.1637 1.28169 14.5169L4.63288 11.9344C4.42917 11.3286 4.3173 10.6841 4.3173 10.0175Z" fill="#FABB05"/>
<path d="M10.2962 3.96491C11.7834 3.96491 13.1152 4.47368 14.1667 5.46783L17.0457 2.61052C15.2971 0.992982 13.0175 0 10.2962 0C6.35513 0 2.94154 2.24561 1.28125 5.51812L4.63243 8.10058C5.43196 5.72631 7.66452 3.96491 10.2962 3.96491Z" fill="#E94235"/>
</svg>
