<svg width="22" height="22" viewBox="0 0 22 22" fill="none" xmlns="http://www.w3.org/2000/svg">
<path fill-rule="evenodd" clip-rule="evenodd" d="M7 17.0645V18.9998L15 19V17.0645C17.9634 15.5918 20 12.5337 20 9C20 4.02944 15.9706 0 11 0C6.02944 0 2 4.02944 2 9C2 12.5337 4.03656 15.5918 7 17.0645ZM18 9C18 11.3787 16.8135 13.4804 15 14.7453C14.396 15.1666 13.7224 15.4949 13 15.7099V17H9V15.7099C8.27757 15.4949 7.60401 15.1664 7 14.7451C5.18652 13.4802 4 11.3787 4 9C4 5.13401 7.13401 2 11 2C14.866 2 18 5.13401 18 9Z" fill="white"/>
<rect x="8" y="22" width="2" height="6" transform="rotate(-90 8 22)" fill="white"/>
</svg>
