<svg width="22" height="22" viewBox="0 0 22 22" fill="none" xmlns="http://www.w3.org/2000/svg">
<path d="M10.1619 7.91223L6.6265 14.9831C6.12474 14.5459 5.51288 14.2318 4.83801 14.0879L8.37344 7.01709C8.8752 7.45429 9.48706 7.76836 10.1619 7.91223Z" fill="#1A56A2"/>
<path d="M13.6264 7.01709C13.1247 7.45429 12.5128 7.76836 11.8379 7.91223L15.3734 14.9831C15.8752 14.5459 16.487 14.2318 17.1619 14.0879L13.6264 7.01709Z" fill="#1A56A2"/>
<path d="M14.1261 19.0001C14.0438 18.6805 14 18.3454 14 18C14 17.6548 14.0437 17.3197 14.126 17.0001H7.87397C7.95621 17.3197 7.99995 17.6548 7.99995 18C7.99995 18.3454 7.95618 18.6805 7.87389 19.0001H14.1261Z" fill="#1A56A2"/>
<circle cx="11" cy="4" r="3" fill="#DAE5F2" stroke="#1A56A2" stroke-width="2"/>
<circle cx="4" cy="18" r="3" fill="#DAE5F2" stroke="#1A56A2" stroke-width="2"/>
<circle cx="18" cy="18" r="3" fill="#DAE5F2" stroke="#1A56A2" stroke-width="2"/>
</svg>
