<svg width="22" height="22" viewBox="0 0 22 22" fill="none" xmlns="http://www.w3.org/2000/svg">
    <rect x="1" y="1" width="20" height="20" stroke="white" stroke-width="2"/>
    <path d="M3 13.6044V8.08211H4.52939V9.6423L4.31384 9.19067C4.47807 8.80062 4.74152 8.50638 5.1042 8.30793C5.46687 8.10264 5.90824 8 6.4283 8V9.47807C6.35987 9.47123 6.29829 9.46781 6.24354 9.46781C6.1888 9.46096 6.13064 9.45754 6.06905 9.45754C5.6311 9.45754 5.27527 9.58414 5.00155 9.83732C4.73468 10.0837 4.60124 10.4703 4.60124 10.9972V13.6044H3Z"
          fill="white"/>
    <path d="M10.4068 13.6044V12.5266L10.3041 12.2905V10.3608C10.3041 10.0187 10.1981 9.75179 9.98595 9.56019C9.78066 9.36858 9.46247 9.27278 9.03136 9.27278C8.73712 9.27278 8.44629 9.32068 8.15889 9.41648C7.87833 9.50544 7.63883 9.62861 7.44039 9.786L6.86558 8.66718C7.16667 8.45505 7.52934 8.29082 7.9536 8.17449C8.37787 8.05816 8.80897 8 9.24692 8C10.0886 8 10.7421 8.19844 11.2074 8.59533C11.6727 8.99222 11.9054 9.61151 11.9054 10.4532V13.6044H10.4068ZM8.72343 13.6865C8.29233 13.6865 7.92281 13.6146 7.61488 13.4709C7.30695 13.3204 7.07087 13.1185 6.90664 12.8653C6.74241 12.6121 6.66029 12.3281 6.66029 12.0134C6.66029 11.6849 6.73899 11.3975 6.89637 11.1512C7.0606 10.9048 7.31721 10.7132 7.6662 10.5764C8.01519 10.4327 8.47024 10.3608 9.03136 10.3608H10.4992V11.2949H9.20586C8.8295 11.2949 8.56947 11.3565 8.42577 11.4796C8.28891 11.6028 8.22048 11.7568 8.22048 11.9415C8.22048 12.1468 8.29917 12.311 8.45656 12.4342C8.62079 12.5505 8.84318 12.6087 9.12374 12.6087C9.39062 12.6087 9.63012 12.5471 9.84225 12.4239C10.0544 12.2939 10.2083 12.1058 10.3041 11.8594L10.5505 12.5984C10.4342 12.9543 10.222 13.2246 9.9141 13.4093C9.60617 13.5941 9.20928 13.6865 8.72343 13.6865Z"
          fill="white"/>
    <path d="M16.711 8C17.149 8 17.539 8.08896 17.8812 8.26687C18.2302 8.43795 18.5039 8.70482 18.7023 9.0675C18.9008 9.42333 19 9.8818 19 10.4429V13.6044H17.3988V10.6893C17.3988 10.2445 17.2995 9.91602 17.1011 9.70389C16.9095 9.49176 16.6358 9.38569 16.2799 9.38569C16.0268 9.38569 15.7975 9.44043 15.5922 9.54992C15.3938 9.65256 15.2364 9.81337 15.1201 10.0323C15.0106 10.2513 14.9558 10.5319 14.9558 10.874V13.6044H13.3546V8.08211H14.884V9.61151L14.5966 9.14961C14.795 8.78009 15.079 8.49611 15.4485 8.29767C15.818 8.09922 16.2389 8 16.711 8Z"
          fill="white"/>
</svg>
