<svg width="22" height="22" viewBox="0 0 22 22" fill="none" xmlns="http://www.w3.org/2000/svg">
    <path d="M20.5857 10.9852C15.2916 5.69114 6.70829 5.69114 1.41421 10.9852L0 9.57097C6.07512 3.49588 15.9248 3.49588 21.9999 9.57097L20.5857 10.9852Z"
          fill="white"/>
    <path d="M4.41421 13.9852C8.05144 10.348 13.9486 10.348 17.5858 13.9852L19 12.571C14.5817 8.15276 7.41828 8.15276 3 12.571L4.41421 13.9852Z"
          fill="white"/>
    <path d="M7.4142 16.9853C7.41419 16.9853 7.4142 16.9853 7.4142 16.9853C9.39457 15.0049 12.6054 15.0049 14.5858 16.9853C14.5858 16.9853 14.5858 16.9853 14.5858 16.9853L16 15.5711L15.9874 15.5585C13.2291 12.8138 8.77086 12.8138 6.01265 15.5585L6 15.5711L7.4142 16.9853Z"
          fill="white"/>
</svg>
