<svg width="23" height="22" viewBox="0 0 23 22" fill="none" xmlns="http://www.w3.org/2000/svg">
    <path d="M10 4V11.5278C11.2275 12.6264 12 14.223 12 16C12 19.3137 9.31371 22 6 22C2.68629 22 0 19.3137 0 16C0 14.223 0.772501 12.6264 2 11.5278V4C2 1.79086 3.79086 0 6 0C8.20914 0 10 1.79086 10 4Z"
          fill="#E1E4EB"/>
    <path fill-rule="evenodd" clip-rule="evenodd"
          d="M6 0C8.20914 0 10 1.79086 10 4V11.5277C11.2275 12.6263 12 14.2229 12 15.9999C12 19.3136 9.31371 21.9999 6 21.9999C2.68629 21.9999 0 19.3136 0 15.9999C0 14.2229 0.772501 12.6263 2 11.5277V4C2 1.79086 3.79086 0 6 0ZM4 4V12.535C2.8044 13.2266 2 14.5193 2 15.9999C2 18.209 3.79086 19.9999 6 19.9999C8.20914 19.9999 10 18.209 10 15.9999C10 14.5193 9.1956 13.2266 8 12.535V4C8 2.89543 7.10457 2 6 2C4.89543 2 4 2.89543 4 4Z"
          fill="#AAAFBC"/>
    <path d="M6 3C6.55228 3 7 3.44772 7 4V14.2676C7.5978 14.6134 8 15.2597 8 16C8 17.1046 7.10457 18 6 18C4.89543 18 4 17.1046 4 16C4 15.2597 4.4022 14.6134 5 14.2676V4C5 3.44772 5.44772 3 6 3Z"
          fill="#AAAFBC"/>
    <path fill-rule="evenodd" clip-rule="evenodd"
          d="M18 7C18 7 14 13.86 14 16.8C14 19.1181 15.7926 21 18 21C20.2074 21 22 19.1181 22 16.8C22 13.86 18 7 18 7Z"
          fill="#E1E4EB" stroke="#AAAFBC" stroke-width="2" stroke-miterlimit="1.5"/>
    <path d="M17 6H19C19 2.68629 16.3137 0 13 0V2C15.2091 2 17 3.79086 17 6Z" fill="#AAAFBC"/>
</svg>
