<svg width="22" height="22" viewBox="0 0 22 22" fill="none" xmlns="http://www.w3.org/2000/svg">
    <path d="M2.00024 20V7.5424L10.9983 2.16491L20 7.54251V20H2.00024Z" stroke="white" stroke-width="2"/>
    <path d="M9.73048 12C9.38467 12.5978 8.73833 13 7.99805 13C6.89348 13 5.99805 12.1046 5.99805 11C5.99805 9.89543 6.89348 9 7.99805 9C8.73833 9 9.38467 9.4022 9.73048 10H14.998V14.2676C15.5958 14.6134 15.998 15.2597 15.998 16C15.998 17.1046 15.1026 18 13.998 18C13.2578 18 12.6114 17.5978 12.2656 17H6.99805V15H12.2656C12.4413 14.6964 12.6944 14.4432 12.998 14.2676V12H9.73048Z"
          fill="white"/>
</svg>
