<svg width="22" height="22" viewBox="0 0 22 22" fill="none" xmlns="http://www.w3.org/2000/svg">
    <rect x="1" y="9" width="12" height="12" fill="#DAE5F2" stroke="#1A56A2" stroke-width="2"/>
    <path d="M8 3.73244C8.5978 3.38663 9 2.74028 9 2C9 0.895431 8.10457 0 7 0C5.89543 0 5 0.895431 5 2C5 2.74028 5.4022 3.38663 6 3.73244V10H8V3.73244Z"
          fill="#1A56A2"/>
    <path d="M17 5C17 6.10457 16.1046 7 15 7C14.2597 7 13.6134 6.5978 13.2676 6H12V10H10V4H13.2676C13.6134 3.4022 14.2597 3 15 3C16.1046 3 17 3.89543 17 5Z"
          fill="#1A56A2"/>
    <path d="M18.2676 12C18.6134 12.5978 19.2597 13 20 13C21.1046 13 22 12.1046 22 11C22 9.89543 21.1046 9 20 9C19.2597 9 18.6134 9.4022 18.2676 10L12 10L12 12L18.2676 12Z"
          fill="#1A56A2"/>
    <path d="M17 21C15.8954 21 15 20.1046 15 19C15 18.2597 15.4022 17.6134 16 17.2676L16 16L12 16L12 14L18 14L18 17.2676C18.5978 17.6134 19 18.2597 19 19C19 20.1046 18.1046 21 17 21Z"
          fill="#1A56A2"/>
</svg>
