<svg width="22" height="22" viewBox="0 0 22 22" fill="none" xmlns="http://www.w3.org/2000/svg">
    <circle cx="11" cy="11" r="10" stroke="white" stroke-width="2"/>
    <path d="M10.2383 19V3H11.9404V19H10.2383ZM10.8511 17.1617C9.89787 17.1617 8.9844 17.0369 8.11064 16.7872C7.23688 16.5262 6.53333 16.1915 6 15.783L6.93617 13.7064C7.44681 14.0695 8.04823 14.3702 8.74043 14.6085C9.44397 14.8355 10.1532 14.9489 10.8681 14.9489C11.4128 14.9489 11.8496 14.8979 12.1787 14.7957C12.5191 14.6823 12.7688 14.5291 12.9277 14.3362C13.0865 14.1433 13.166 13.922 13.166 13.6723C13.166 13.3546 13.0411 13.105 12.7915 12.9234C12.5418 12.7305 12.2128 12.5773 11.8043 12.4638C11.3957 12.339 10.9418 12.2255 10.4426 12.1234C9.95461 12.0099 9.46099 11.8738 8.9617 11.7149C8.47376 11.556 8.02553 11.3518 7.61702 11.1021C7.20851 10.8525 6.87376 10.5234 6.61277 10.1149C6.36312 9.70638 6.2383 9.1844 6.2383 8.54894C6.2383 7.86808 6.41986 7.24965 6.78298 6.69362C7.15745 6.12624 7.71348 5.67801 8.45106 5.34894C9.2 5.00851 10.1362 4.8383 11.2596 4.8383C12.0085 4.8383 12.7461 4.92908 13.4723 5.11064C14.1986 5.28085 14.8397 5.54184 15.3957 5.89362L14.5447 7.98723C13.9887 7.6695 13.4326 7.43688 12.8766 7.28936C12.3206 7.1305 11.7759 7.05106 11.2426 7.05106C10.7092 7.05106 10.2723 7.11348 9.93191 7.2383C9.59149 7.36312 9.34752 7.52766 9.2 7.73191C9.05248 7.92482 8.97872 8.15177 8.97872 8.41277C8.97872 8.71915 9.10355 8.96879 9.35319 9.1617C9.60284 9.34326 9.93192 9.49078 10.3404 9.60426C10.7489 9.71773 11.1972 9.83121 11.6851 9.94468C12.1844 10.0582 12.678 10.1887 13.166 10.3362C13.6652 10.4837 14.1191 10.6823 14.5277 10.9319C14.9362 11.1816 15.2652 11.5106 15.5149 11.9191C15.7759 12.3277 15.9064 12.844 15.9064 13.4681C15.9064 14.1376 15.7191 14.7504 15.3447 15.3064C14.9702 15.8624 14.4085 16.3106 13.6596 16.6511C12.922 16.9915 11.9858 17.1617 10.8511 17.1617Z"
          fill="white"/>
</svg>
