<svg width="22" height="22" viewBox="0 0 22 22" fill="none" xmlns="http://www.w3.org/2000/svg">
<path d="M18.7782 15.95L15.9497 18.7784L10.2929 13.1215C9.51183 13.9026 9.51183 15.1689 10.2929 15.95L14.5355 20.1926C15.3166 20.9737 16.5829 20.9737 17.3639 20.1926L20.1924 17.3642C20.9734 16.5831 20.9734 15.3168 20.1924 14.5358L15.9497 10.2931C15.1687 9.51207 13.9024 9.51207 13.1213 10.2931L18.7782 15.95Z" fill="#1A56A2"/>
<rect x="7.46448" y="6.05029" width="12" height="2" transform="rotate(45 7.46448 6.05029)" fill="#1A56A2"/>
<path d="M6.05029 3.22198L11.7071 8.87884C12.4882 8.09779 12.4882 6.83146 11.7071 6.05041L7.46451 1.80777C6.68346 1.02672 5.41713 1.02672 4.63608 1.80777L1.80765 4.6362C1.0266 5.41724 1.0266 6.68357 1.80765 7.46462L6.05029 11.7073C6.83134 12.4883 8.09767 12.4883 8.87872 11.7073L3.22187 6.05041L6.05029 3.22198Z" fill="#1A56A2"/>
</svg>
