<svg width="22" height="22" viewBox="0 0 22 22" fill="none" xmlns="http://www.w3.org/2000/svg">
<rect width="22" height="22" fill="#DAE5F2"/>
<path d="M10 0V2H3.41431L8.48535 7.07129L7.07104 8.48535L2 3.41455V10H0V0H10Z" fill="#1A56A2"/>
<path d="M22 10H20L20 3.41406L14.9287 8.48535L13.5145 7.07114L18.5856 2L12 2L12 0L22 4.37114e-07V10Z" fill="#1A56A2"/>
<path d="M10 22V20H3.41406L8.48535 14.9287L7.07114 13.5145L2 18.5856L2 12H0V22H10Z" fill="#1A56A2"/>
<path d="M22 12L20 12L20 18.5859L14.9287 13.5146L13.5145 14.9289L18.5856 20L12 20L12 22H22V12Z" fill="#1A56A2"/>
</svg>
