<svg width="22" height="22" viewBox="0 0 22 22" fill="none" xmlns="http://www.w3.org/2000/svg">
<circle cx="4" cy="5" r="4" fill="#E1E4EB"/>
<circle cx="4" cy="15" r="4" fill="#E1E4EB"/>
<circle cx="16" cy="15" r="6" fill="#E1E4EB"/>
<path fill-rule="evenodd" clip-rule="evenodd" d="M5 8.87398C6.72523 8.42994 8 6.86384 8 5C8 2.79086 6.20914 1 4 1C1.79086 1 0 2.79086 0 5C0 6.86384 1.27477 8.42994 3 8.87398V11.126C1.27477 11.5701 0 13.1362 0 15C0 17.2091 1.79086 19 4 19C5.86384 19 7.42994 17.7252 7.87398 16H10.083C10.559 18.8377 13.027 21 16 21C19.3137 21 22 18.3137 22 15C22 12.027 19.8377 9.55904 17 9.08296V5L15 5L15 9.08296C12.4875 9.50448 10.5045 11.4875 10.083 14H7.87398C7.5122 12.5944 6.40561 11.4878 5 11.126V8.87398ZM6 5C6 6.10457 5.10457 7 4 7C2.89543 7 2 6.10457 2 5C2 3.89543 2.89543 3 4 3C5.10457 3 6 3.89543 6 5ZM16 11C13.7909 11 12 12.7909 12 15C12 17.2091 13.7909 19 16 19C18.2091 19 20 17.2091 20 15C20 12.7909 18.2091 11 16 11ZM4 13C5.10457 13 6 13.8954 6 15C6 16.1046 5.10457 17 4 17C2.89543 17 2 16.1046 2 15C2 13.8954 2.89543 13 4 13Z" fill="#AAAFBC"/>
</svg>
