<svg width="48" height="48" viewBox="0 0 48 48" fill="none" xmlns="http://www.w3.org/2000/svg">
<g id="Size=48px">
<g id="Line">
<rect id="Rectangle" width="48" height="48" rx="24" fill="#00B900"/>
<path id="Subtract" fill-rule="evenodd" clip-rule="evenodd" d="M40 22.8007C40 15.6412 32.8227 9.81652 23.9998 9.81652C15.1782 9.81652 8 15.6412 8 22.8007C8 29.2191 13.6921 34.5944 21.3811 35.6109C21.9022 35.7232 22.6113 35.9545 22.7907 36.3998C22.9521 36.8044 22.8963 37.4381 22.8423 37.8466C22.8423 37.8466 22.6546 38.9757 22.6141 39.2161L22.6079 39.2517C22.5319 39.6849 22.3403 40.7781 23.9998 40.0786C25.7077 39.3591 33.2144 34.653 36.5712 30.7893H36.5705C38.8894 28.2465 40 25.6661 40 22.8007ZM20.7492 19.3407H19.6269C19.4548 19.3407 19.3149 19.4803 19.3149 19.6518V26.6236C19.3149 26.7953 19.4548 26.9346 19.6269 26.9346H20.7492C20.9212 26.9346 21.0608 26.7953 21.0608 26.6236V19.6518C21.0608 19.4803 20.9212 19.3407 20.7492 19.3407ZM27.3512 19.3407H28.4735C28.6459 19.3407 28.7852 19.4803 28.7852 19.6518V26.6236C28.7852 26.7953 28.6459 26.9346 28.4735 26.9346H27.3512C27.3236 26.9346 27.2969 26.9306 27.2715 26.9238L27.2699 26.9235L27.2682 26.9231L27.2669 26.9229L27.2535 26.9186L27.2457 26.9159C27.2426 26.9149 27.2396 26.9137 27.2365 26.9125C27.231 26.9103 27.2264 26.9082 27.2212 26.906C27.2163 26.9039 27.2111 26.9014 27.2065 26.8987L27.2017 26.8964L27.1976 26.8941L27.1884 26.8887L27.1782 26.8824L27.177 26.8814L27.1752 26.88C27.1454 26.8597 27.1181 26.8343 27.096 26.803L23.8972 22.4828V26.6236C23.8972 26.7953 23.7577 26.9346 23.5853 26.9346H22.4633C22.2912 26.9346 22.1514 26.7953 22.1514 26.6236V19.6518C22.1514 19.4803 22.2912 19.3407 22.4633 19.3407H23.5853C23.5893 19.3407 23.5923 19.3414 23.5963 19.3414L23.6016 19.3416C23.6053 19.3417 23.6088 19.3419 23.6123 19.3423C23.6178 19.3429 23.6233 19.3432 23.6288 19.3444L23.6341 19.3449L23.642 19.346C23.6479 19.3472 23.6537 19.3487 23.6598 19.35L23.6637 19.3511L23.665 19.3514C23.6669 19.3519 23.6688 19.3524 23.6706 19.353L23.6757 19.3544L23.6808 19.356L23.6893 19.3588L23.6994 19.3625C23.7055 19.3647 23.7113 19.3674 23.7171 19.3701L23.7172 19.3702C23.7193 19.371 23.7212 19.3719 23.7232 19.373L23.7233 19.373L23.727 19.3748C23.7325 19.3776 23.738 19.3809 23.7436 19.3843C23.7469 19.3858 23.75 19.3877 23.7531 19.3898L23.7573 19.3925L23.7693 19.4009C23.7721 19.403 23.7748 19.4049 23.7773 19.4073C23.7831 19.4116 23.7886 19.4162 23.7939 19.4211L23.7975 19.4242L23.7997 19.4263C23.8061 19.4325 23.8123 19.4386 23.8184 19.4456L23.8205 19.4475C23.8291 19.4576 23.8374 19.468 23.8448 19.4791L27.0396 23.7937V19.6518C27.0396 19.4803 27.1792 19.3407 27.3512 19.3407ZM18.0435 25.1887H14.9941V19.6521C14.9941 19.48 14.8545 19.3404 14.6828 19.3404H13.5602C13.3881 19.3404 13.2485 19.48 13.2485 19.6521V26.6226V26.6232C13.2485 26.707 13.282 26.7827 13.3356 26.8386C13.3369 26.8401 13.3381 26.8416 13.3399 26.8432L13.3445 26.8475C13.4007 26.9014 13.4761 26.9346 13.5599 26.9346H13.5602H18.0435C18.2156 26.9346 18.3545 26.7947 18.3545 26.6226V25.5003C18.3545 25.3283 18.2156 25.1887 18.0435 25.1887ZM34.9825 20.7747C34.9825 20.947 34.8435 21.0863 34.6715 21.0863H31.6223V22.2644H34.6715C34.8435 22.2644 34.9825 22.4043 34.9825 22.5764V23.6987C34.9825 23.8707 34.8435 24.0103 34.6715 24.0103H31.6223V25.1887H34.6715C34.8435 25.1887 34.9825 25.3286 34.9825 25.5003V26.6229C34.9825 26.7947 34.8435 26.9346 34.6715 26.9346H30.1881H30.1875C30.1041 26.9346 30.0283 26.9011 29.9725 26.8475C29.9715 26.8467 29.9704 26.8458 29.9694 26.8448C29.9688 26.8443 29.9683 26.8437 29.9679 26.8432C29.9663 26.8419 29.9648 26.8401 29.9636 26.8386C29.9099 26.7827 29.8765 26.707 29.8765 26.6232V26.6229V19.6524V19.6521C29.8765 19.5686 29.9096 19.4932 29.963 19.4374C29.9645 19.4355 29.966 19.4337 29.9679 19.4318C29.9688 19.4306 29.9703 19.4297 29.9715 19.4285C30.0277 19.3742 30.1034 19.3404 30.1875 19.3404H30.1881H34.6715C34.8435 19.3404 34.9825 19.4803 34.9825 19.6524V20.7747Z" fill="white"/>
</g>
</g>
</svg>
