<svg width="22" height="22" viewBox="0 0 22 22" fill="none" xmlns="http://www.w3.org/2000/svg">
<path fill-rule="evenodd" clip-rule="evenodd" d="M4.75738 4.6357C1.24266 8.15042 1.24266 13.8489 4.75738 17.3636L3.34316 18.7778C3.3427 18.7774 3.34225 18.7769 3.34179 18.7765C-0.952145 14.481 -0.952144 7.51828 3.34179 3.22286C3.34225 3.2224 3.34271 3.22194 3.34317 3.22148L4.75738 4.6357Z" fill="#1A56A2"/>
<path fill-rule="evenodd" clip-rule="evenodd" d="M6.8787 6.75724C4.53555 9.10039 4.53555 12.8994 6.8787 15.2425L5.46448 16.6567C2.34029 13.5325 2.34029 8.46722 5.46448 5.34303L6.8787 6.75724Z" fill="#1A56A2"/>
<path fill-rule="evenodd" clip-rule="evenodd" d="M17.2426 4.6357C20.7573 8.15042 20.7573 13.8489 17.2426 17.3636L18.6568 18.7778C18.6573 18.7774 18.6578 18.7769 18.6582 18.7765C22.9521 14.481 22.9521 7.51828 18.6582 3.22286C18.6578 3.2224 18.6573 3.22194 18.6568 3.22148L17.2426 4.6357Z" fill="#1A56A2"/>
<path fill-rule="evenodd" clip-rule="evenodd" d="M15.1213 6.75724C17.4644 9.10039 17.4644 12.8994 15.1213 15.2425L16.5355 16.6567C19.6597 13.5325 19.6597 8.46722 16.5355 5.34303L15.1213 6.75724Z" fill="#1A56A2"/>
</svg>
