<svg width="22" height="22" viewBox="0 0 22 22" fill="none" xmlns="http://www.w3.org/2000/svg">
<mask id="path-1-inside-1_234_19444" fill="white">
<path d="M2 7.8C2 6.80589 2.80589 6 3.8 6H18.2C19.1941 6 20 6.80589 20 7.8V18.4C20 20.3882 18.3882 22 16.4 22H5.6C3.61178 22 2 20.3882 2 18.4V7.8Z"/>
</mask>
<path d="M2 7.8C2 6.80589 2.80589 6 3.8 6H18.2C19.1941 6 20 6.80589 20 7.8V18.4C20 20.3882 18.3882 22 16.4 22H5.6C3.61178 22 2 20.3882 2 18.4V7.8Z" stroke="#AAAFBC" stroke-width="4" mask="url(#path-1-inside-1_234_19444)"/>
<mask id="path-2-inside-2_234_19444" fill="white">
<rect x="7" width="8" height="8" rx="1.6"/>
</mask>
<rect x="7" width="8" height="8" rx="1.6" stroke="#AAAFBC" stroke-width="4" mask="url(#path-2-inside-2_234_19444)"/>
<rect x="7" y="6" width="2" height="4" rx="1" fill="#AAAFBC"/>
<rect x="13" y="6" width="2" height="4" rx="1" fill="#AAAFBC"/>
</svg>
