<svg width="22" height="22" viewBox="0 0 22 22" fill="none" xmlns="http://www.w3.org/2000/svg">
<path d="M11 0C4.92487 0 0 4.92487 0 11C0 12.6569 1.34315 14 3 14H3.58152C3.32622 13.3693 3.14901 12.6986 3.06189 12H3C2.44772 12 2 11.5523 2 11C2 10.4477 2.44772 10 3 10H3.06189C3.14901 9.30136 3.32622 8.6307 3.58152 8H3C2.82874 8 2.66084 8.01435 2.49742 8.04191C3.72102 4.52446 7.0657 2 11 2C14.9343 2 18.279 4.52446 19.5026 8.04191C19.3392 8.01435 19.1713 8 19 8H18.4185C18.6738 8.6307 18.851 9.30136 18.9381 10H19C19.5523 10 20 10.4477 20 11C20 11.5523 19.5523 12 19 12H18.9381C18.851 12.6986 18.6738 13.3693 18.4185 14H19C20.6569 14 22 12.6569 22 11C22 4.92487 17.0751 0 11 0Z" fill="white"/>
<path d="M6.22257 17.4173C5.6739 17.0082 5.17947 16.5304 4.75203 15.9966L1 21.9998H21L17.248 15.9966C16.8205 16.5304 16.3261 17.0082 15.7774 17.4173L17.3915 19.9998H4.6085L6.22257 17.4173Z" fill="white"/>
<circle cx="11" cy="11" r="7" stroke="white" stroke-width="2"/>
<path d="M13 13C13 12.4477 13.4477 12 14 12H19V14H14C13.4477 14 13 13.5523 13 13Z" fill="white"/>
</svg>
